<?xml version="1.0" standalone="no"?>
<!DOCTYPE svg PUBLIC "-//W3C//DTD SVG 20010904//EN"
 "http://www.w3.org/TR/2001/REC-SVG-20010904/DTD/svg10.dtd">
<svg version="1.0" xmlns="http://www.w3.org/2000/svg"
 width="1200.000000pt" height="1200.000000pt" viewBox="0 0 1200.000000 1200.000000"
 preserveAspectRatio="xMidYMid meet">
<metadata>
Created by potrace 1.14, written by Peter Selinger 2001-2017
</metadata>
<g transform="translate(0.000000,1200.000000) scale(0.100000,-0.100000)"
fill="#000000" stroke="none">
<path d="M5199 9706 l-835 -835 85 -85 84 -85 -1415 -1415 -1415 -1415 0 -987
c0 -904 -1 -988 -16 -993 -9 -3 -68 -6 -132 -5 l-115 1 0 -1214 0 -1213 1214
0 1215 0 0 1213 0 1213 -117 -1 c-64 0 -124 1 -132 3 -13 3 -15 79 -15 614 l0
611 1130 1129 1129 1129 85 -85 86 -85 67 68 68 68 1112 -1111 1112 -1111 1
-612 c0 -337 -2 -613 -5 -614 -3 0 -61 -1 -130 -2 l-125 -2 -2 -1212 -2 -1213
1214 0 1215 0 0 1214 0 1213 -117 1 c-65 0 -125 0 -133 1 -13 1 -15 118 -14
992 l1 990 -1398 1398 -1398 1398 102 101 101 102 -835 835 -835 835 -835
-834z m1160 -511 l324 -324 -325 -325 -324 -325 -324 324 c-308 309 -324 326
-307 342 122 126 623 630 627 631 3 1 151 -144 329 -323z m-1160 -1159 l154
-155 -1234 -1234 -1235 -1234 0 -761 c1 -669 -1 -761 -14 -764 -8 -2 -112 -3
-230 -2 l-215 0 0 844 0 843 1309 1309 c720 719 1310 1308 1310 1308 1 0 71
-69 155 -154z m3087 -1173 l1289 -1288 0 -842 c0 -570 -3 -843 -10 -844 -82
-6 -438 -2 -444 6 -4 6 -6 349 -6 764 l1 754 -1218 1217 -1218 1218 148 150
c81 82 152 150 158 151 6 0 591 -578 1300 -1286z m-5145 -3703 c1 -3 2 -224 3
-492 l2 -487 -492 0 -492 0 0 487 c0 268 1 489 3 492 4 7 975 7 976 0z m6694
-485 l0 -490 -490 -3 -490 -2 -1 487 c0 269 3 490 7 493 4 3 225 5 491 5 l483
0 0 -490z"/>
<path d="M5790 5310 c-584 -109 -1000 -601 -1001 -1185 -1 -258 64 -475 202
-680 234 -348 609 -546 1020 -540 159 3 251 19 394 67 120 41 284 135 379 218
218 188 378 470 412 725 3 28 8 53 10 57 7 11 6 218 -1 286 -3 35 -16 105 -29
156 -118 462 -503 818 -976 901 -88 15 -316 13 -410 -5z m318 -716 c219 -49
372 -235 381 -460 8 -221 -131 -419 -339 -485 -75 -24 -213 -29 -275 -10 -223
69 -369 263 -364 486 7 313 293 538 597 469z"/>
</g>
</svg>
